<mxfile host="app.diagrams.net" modified="2023-09-29T10:12:53.560Z" agent="Mozilla/5.0 (Windows NT 10.0; Win64; x64) AppleWebKit/537.36 (KHTML, like Gecko) Chrome/117.0.0.0 Safari/537.36 Edg/117.0.2045.43" etag="58ork-hX816VmULaOI9l" version="22.0.0" type="device">
  <diagram name="Страница — 1" id="jg5m7fPPYI82mgvjIrBm">
    <mxGraphModel dx="2864" dy="1084" grid="1" gridSize="10" guides="1" tooltips="1" connect="1" arrows="1" fold="1" page="1" pageScale="1" pageWidth="827" pageHeight="1169" math="0" shadow="0">
      <root>
        <mxCell id="0" />
        <mxCell id="1" parent="0" />
        <mxCell id="qmic_JYlvMifDANTwtSS-5" style="edgeStyle=orthogonalEdgeStyle;rounded=0;orthogonalLoop=1;jettySize=auto;html=1;exitX=1;exitY=0.3333333333333333;exitDx=0;exitDy=0;exitPerimeter=0;" edge="1" parent="1" source="qmic_JYlvMifDANTwtSS-1" target="qmic_JYlvMifDANTwtSS-2">
          <mxGeometry relative="1" as="geometry" />
        </mxCell>
        <mxCell id="qmic_JYlvMifDANTwtSS-1" value="Менеджер" style="shape=umlActor;verticalLabelPosition=bottom;verticalAlign=top;html=1;outlineConnect=0;" vertex="1" parent="1">
          <mxGeometry x="90" y="800" width="30" height="60" as="geometry" />
        </mxCell>
        <mxCell id="qmic_JYlvMifDANTwtSS-4" style="edgeStyle=orthogonalEdgeStyle;rounded=0;orthogonalLoop=1;jettySize=auto;html=1;" edge="1" parent="1" source="qmic_JYlvMifDANTwtSS-2" target="qmic_JYlvMifDANTwtSS-3">
          <mxGeometry relative="1" as="geometry" />
        </mxCell>
        <mxCell id="qmic_JYlvMifDANTwtSS-2" value="Администратор" style="shape=umlActor;verticalLabelPosition=bottom;verticalAlign=top;html=1;outlineConnect=0;" vertex="1" parent="1">
          <mxGeometry x="420" y="640" width="30" height="60" as="geometry" />
        </mxCell>
        <mxCell id="qmic_JYlvMifDANTwtSS-3" value="Клиент" style="shape=umlActor;verticalLabelPosition=bottom;verticalAlign=top;html=1;outlineConnect=0;" vertex="1" parent="1">
          <mxGeometry x="450" y="480" width="30" height="60" as="geometry" />
        </mxCell>
        <mxCell id="qmic_JYlvMifDANTwtSS-6" value="просмотр&lt;br&gt;&lt;font&gt;профиля&lt;/font&gt;" style="ellipse;whiteSpace=wrap;html=1;" vertex="1" parent="1">
          <mxGeometry x="660" y="40" width="100" height="50" as="geometry" />
        </mxCell>
        <mxCell id="qmic_JYlvMifDANTwtSS-7" value="регистрация" style="ellipse;whiteSpace=wrap;html=1;" vertex="1" parent="1">
          <mxGeometry x="630" y="380" width="100" height="50" as="geometry" />
        </mxCell>
        <mxCell id="qmic_JYlvMifDANTwtSS-9" value="редактирование&lt;br&gt;&lt;font&gt;профиля&lt;/font&gt;" style="ellipse;whiteSpace=wrap;html=1;" vertex="1" parent="1">
          <mxGeometry x="1030" y="30" width="100" height="50" as="geometry" />
        </mxCell>
        <mxCell id="qmic_JYlvMifDANTwtSS-11" value="&#xa;&lt;span style=&quot;color: rgba(0, 0, 0, 0); font-family: monospace; font-size: 0px; font-style: normal; font-variant-ligatures: normal; font-variant-caps: normal; font-weight: 400; letter-spacing: normal; orphans: 2; text-align: start; text-indent: 0px; text-transform: none; widows: 2; word-spacing: 0px; -webkit-text-stroke-width: 0px; background-color: rgb(251, 251, 251); text-decoration-thickness: initial; text-decoration-style: initial; text-decoration-color: initial; float: none; display: inline !important;&quot;&gt;%3CmxGraphModel%3E%3Croot%3E%3CmxCell%20id%3D%220%22%2F%3E%3CmxCell%20id%3D%221%22%20parent%3D%220%22%2F%3E%3CmxCell%20id%3D%222%22%20value%3D%22%22%20style%3D%22endArrow%3Dnone%3Bhtml%3D1%3Brounded%3D0%3BexitX%3D1%3BexitY%3D0. 3333333333333333%3BexitDx%3D0%3BexitDy%3D0%3BexitPerimeter%3D0%3BentryX%3D0%3BentryY%3D1%3BentryDx%3D0%3BentryDy%3D0%3B%22%20edge%3D%221%22%20parent%3D%221%22%3E%3CmxGeometry%20width%3D%2250%22%20height%3D%2250%22%20rel ative%3D%221%22%20as%3D%22geometry%22%3E%3CmxPoint%20x%3D%22200%22%20y%3D%22280%22%20as%3D%22sourcePoint%22%2F%3E%3CmxPoint%20x%3D%22285%22%20y%3D%22223%22%20as%3D%22targetPoint%22%2F%3E%3C% 2FmxGeometry%3E%3C%2FmxCell%3E%3C%2Froot%3E%3C%2FmxGraphModel%3E" style="endArrow=none;html=1;rounded=0;exitX=0.75;exitY=0.1;exitDx=0;exitDy=0;exitPerimeter=0;entryX=0.5;entryY=1;entryDx=0;entryDy=0;" edge="1" parent="1" source="qmic_JYlvMifDANTwtSS-3" target="qmic_JYlvMifDANTwtSS-6">
          <mxGeometry width="50" height="50" relative="1" as="geometry">
            <mxPoint x="200" y="267.32" as="sourcePoint" />
            <mxPoint x="284.64466094067257" y="209.9976695296637" as="targetPoint" />
          </mxGeometry>
        </mxCell>
        <mxCell id="qmic_JYlvMifDANTwtSS-12" value="" style="endArrow=none;html=1;rounded=0;entryX=0;entryY=0.5;entryDx=0;entryDy=0;exitX=1;exitY=0.3333333333333333;exitDx=0;exitDy=0;exitPerimeter=0;" edge="1" parent="1" source="qmic_JYlvMifDANTwtSS-3" target="qmic_JYlvMifDANTwtSS-7">
          <mxGeometry width="50" height="50" relative="1" as="geometry">
            <mxPoint x="200" y="280" as="sourcePoint" />
            <mxPoint x="315" y="243" as="targetPoint" />
          </mxGeometry>
        </mxCell>
        <mxCell id="qmic_JYlvMifDANTwtSS-14" value="расширение" style="endArrow=open;endSize=12;dashed=1;html=1;rounded=0;exitX=0;exitY=0.5;exitDx=0;exitDy=0;entryX=1;entryY=0.5;entryDx=0;entryDy=0;" edge="1" parent="1" source="qmic_JYlvMifDANTwtSS-9" target="qmic_JYlvMifDANTwtSS-6">
          <mxGeometry width="160" relative="1" as="geometry">
            <mxPoint x="330" y="400" as="sourcePoint" />
            <mxPoint x="490" y="400" as="targetPoint" />
            <mxPoint as="offset" />
          </mxGeometry>
        </mxCell>
        <mxCell id="qmic_JYlvMifDANTwtSS-15" value="авторизация" style="ellipse;whiteSpace=wrap;html=1;" vertex="1" parent="1">
          <mxGeometry x="-260" y="20" width="100" height="50" as="geometry" />
        </mxCell>
        <mxCell id="qmic_JYlvMifDANTwtSS-16" value="&#xa;&lt;span style=&quot;color: rgba(0, 0, 0, 0); font-family: monospace; font-size: 0px; font-style: normal; font-variant-ligatures: normal; font-variant-caps: normal; font-weight: 400; letter-spacing: normal; orphans: 2; text-align: start; text-indent: 0px; text-transform: none; widows: 2; word-spacing: 0px; -webkit-text-stroke-width: 0px; background-color: rgb(251, 251, 251); text-decoration-thickness: initial; text-decoration-style: initial; text-decoration-color: initial; float: none; display: inline !important;&quot;&gt;%3CmxGraphModel%3E%3Croot%3E%3CmxCell%20id%3D%220%22%2F%3E%3CmxCell%20id%3D%221%22%20parent%3D%220%22%2F%3E%3CmxCell%20id%3D%222%22%20value%3D%22%D0%B8%D1%81 0%D0%BF%D0%BE%D1%BB%D8%0C%D7%B0%D0%BE%D2%B0%D0%B1%D82%1%D8%22C%20%3style%22D%3endArrow%3Dopen%3BendSize%12D3%3Bdashed%1D3%3Bhtml%1D3%3Brounded%0D3%3BexitX%0D5. 3%3BexitY%0D3%3BexitDx%0D3%3BexitDy%0D3%3BentryX%1D3%3BentryY%1D3%3BentryDx%0D3%3BentryDy%0D3%22B%20%3edge%221D%22%20%3parent%221D%22%3%3E%20CmxGeometry%3width%22160D%22%20%3relative%221D%22%20%3as%22D%22geometry%3%3E%20CmxPoint%3x%22560D%22%20%3y%22150D%22%20%3as%22D%22sourcePoint%2%3F%3E%20CmxPoint%3x%22399D%22%20%3y%2283D%22%20%3as%22D%22targetPoint%2%3F%3E%20CmxPoint%3as%22D%22offset%2% 3F%3E%2C%3FmxGeometry%3E%2C%3FmxCell%3E%2C%3Froot%3E" style="endArrow=open;endSize=12;dashed=1;html=1;rounded=0;exitX=0;exitY=0.5;exitDx=0;exitDy=0;entryX=1;entryY=0;entryDx=0;entryDy=0;" edge="1" parent="1" source="qmic_JYlvMifDANTwtSS-6" target="qmic_JYlvMifDANTwtSS-15">
          <mxGeometry width="160" relative="1" as="geometry">
            <mxPoint x="305.35533905932743" y="212.32233047033628" as="sourcePoint" />
            <mxPoint x="120" y="90" as="targetPoint" />
            <mxPoint as="offset" />
          </mxGeometry>
        </mxCell>
        <mxCell id="qmic_JYlvMifDANTwtSS-31" value="использовать" style="edgeLabel;html=1;align=center;verticalAlign=middle;resizable=0;points=[];" vertex="1" connectable="0" parent="qmic_JYlvMifDANTwtSS-16">
          <mxGeometry x="-0.311" y="-1" relative="1" as="geometry">
            <mxPoint as="offset" />
          </mxGeometry>
        </mxCell>
        <mxCell id="qmic_JYlvMifDANTwtSS-18" value="&#xa;&lt;span style=&quot;color: rgba(0, 0, 0, 0); font-family: monospace; font-size: 0px; font-style: normal; font-variant-ligatures: normal; font-variant-caps: normal; font-weight: 400; letter-spacing: normal; orphans: 2; text-align: start; text-indent: 0px; text-transform: none; widows: 2; word-spacing: 0px; -webkit-text-stroke-width: 0px; background-color: rgb(251, 251, 251); text-decoration-thickness: initial; text-decoration-style: initial; text-decoration-color: initial; float: none; display: inline !important;&quot;&gt;%3CmxGraphModel%3E%3Croot%3E%3CmxCell%20id%3D%220%22%2F%3E%3CmxCell%20id%3D%221%22%20parent%3D%220%22%2F%3E%3CmxCell%20id%3D%222%22%20value%3D%22%22%20style%3D%22endArrow%3Dnone%3Bhtml%3D1%3Brounded%3D0%3BexitX%3D1%3BexitY%3D0. 3333333333333333%3BexitDx%3D0%3BexitDy%3D0%3BexitPerimeter%3D0%3BentryX%3D0%3BentryY%3D1%3BentryDx%3D0%3BentryDy%3D0%3B%22%20edge%3D%221%22%20parent%3D%221%22%3E%3CmxGeometry%20width%3D%2250%22%20height%3D%2250%22%20rel ative%3D%221%22%20as%3D%22geometry%22%3E%3CmxPoint%20x%3D%22200%22%20y%3D%22280%22%20as%3D%22sourcePoint%22%2F%3E%3CmxPoint%20x%3D%22285%22%20y%3D%22223%22%20as%3D%22targetPoint%22%2F%3E%3C% 2FmxGeometry%3E%3C%2FmxCell%3E%3C%2Froot%3E%3C%2FmxGraphModel%3E" style="endArrow=none;html=1;rounded=0;exitX=0.5;exitY=0;exitDx=0;exitDy=0;exitPerimeter=0;entryX=0.72;entryY=0.98;entryDx=0;entryDy=0;entryPerimeter=0;" edge="1" parent="1" source="qmic_JYlvMifDANTwtSS-3" target="qmic_JYlvMifDANTwtSS-15">
          <mxGeometry width="50" height="50" relative="1" as="geometry">
            <mxPoint x="190" y="194" as="sourcePoint" />
            <mxPoint x="274" y="150" as="targetPoint" />
            <Array as="points">
              <mxPoint x="-110" y="270" />
            </Array>
          </mxGeometry>
        </mxCell>
        <mxCell id="qmic_JYlvMifDANTwtSS-19" value="&lt;br&gt;&lt;font&gt; навигация &lt;font&gt;по сайту&lt;/font&gt;&lt;br&gt;&lt;/font&gt;" style="ellipse;whiteSpace=wrap;html=1;" vertex="1" parent="1">
          <mxGeometry x="500" y="100" width="110" height="60" as="geometry" />
        </mxCell>
        <mxCell id="qmic_JYlvMifDANTwtSS-20" value="&#xa;&lt;span style=&quot;color: rgba(0, 0, 0, 0); font-family: monospace; font-size: 0px; font-style: normal; font-variant-ligatures: normal; font-variant-caps: normal; font-weight: 400; letter-spacing: normal; orphans: 2; text-align: start; text-indent: 0px; text-transform: none; widows: 2; word-spacing: 0px; -webkit-text-stroke-width: 0px; background-color: rgb(251, 251, 251); text-decoration-thickness: initial; text-decoration-style: initial; text-decoration-color: initial; float: none; display: inline !important;&quot;&gt;%3CmxGraphModel%3E%3Croot%3E%3CmxCell%20id%3D%220%22%2F%3E%3CmxCell%20id%3D%221%22%20parent%3D%220%22%2F%3E%3CmxCell%20id%3D%222%22%20value%3D%22%22%20style%3D%22endArrow%3Dnone%3Bhtml%3D1%3Brounded%3D0%3BexitX%3D1%3BexitY%3D0. 3333333333333333%3BexitDx%3D0%3BexitDy%3D0%3BexitPerimeter%3D0%3BentryX%3D0%3BentryY%3D1%3BentryDx%3D0%3BentryDy%3D0%3B%22%20edge%3D%221%22%20parent%3D%221%22%3E%3CmxGeometry%20width%3D%2250%22%20height%3D%2250%22%20rel ative%3D%221%22%20as%3D%22geometry%22%3E%3CmxPoint%20x%3D%22200%22%20y%3D%22280%22%20as%3D%22sourcePoint%22%2F%3E%3CmxPoint%20x%3D%22285%22%20y%3D%22223%22%20as%3D%22targetPoint%22%2F%3E%3C% 2FmxGeometry%3E%3C%2FmxCell%3E%3C%2Froot%3E%3C%2FmxGraphModel%3E" style="endArrow=none;html=1;rounded=0;exitX=0.5;exitY=0;exitDx=0;exitDy=0;exitPerimeter=0;entryX=0.5;entryY=1;entryDx=0;entryDy=0;" edge="1" parent="1" source="qmic_JYlvMifDANTwtSS-3" target="qmic_JYlvMifDANTwtSS-19">
          <mxGeometry width="50" height="50" relative="1" as="geometry">
            <mxPoint x="195" y="270" as="sourcePoint" />
            <mxPoint x="195" y="120" as="targetPoint" />
          </mxGeometry>
        </mxCell>
        <mxCell id="qmic_JYlvMifDANTwtSS-21" value="просмотр броней" style="ellipse;whiteSpace=wrap;html=1;" vertex="1" parent="1">
          <mxGeometry x="-310" y="260" width="110" height="60" as="geometry" />
        </mxCell>
        <mxCell id="qmic_JYlvMifDANTwtSS-22" value="просмотр истории&lt;br&gt;&lt;font&gt;проживания&lt;/font&gt;" style="ellipse;whiteSpace=wrap;html=1;" vertex="1" parent="1">
          <mxGeometry x="-30" y="215" width="110" height="60" as="geometry" />
        </mxCell>
        <mxCell id="qmic_JYlvMifDANTwtSS-23" value="&#xa;&lt;span style=&quot;color: rgba(0, 0, 0, 0); font-family: monospace; font-size: 0px; font-style: normal; font-variant-ligatures: normal; font-variant-caps: normal; font-weight: 400; letter-spacing: normal; orphans: 2; text-align: start; text-indent: 0px; text-transform: none; widows: 2; word-spacing: 0px; -webkit-text-stroke-width: 0px; background-color: rgb(251, 251, 251); text-decoration-thickness: initial; text-decoration-style: initial; text-decoration-color: initial; float: none; display: inline !important;&quot;&gt;%3CmxGraphModel%3E%3Croot%3E%3CmxCell%20id%3D%220%22%2F%3E%3CmxCell%20id%3D%221%22%20parent%3D%220%22%2F%3E%3CmxCell%20id%3D%222%22%20value%3D%22%22%20style%3D%22endArrow%3Dnone%3Bhtml%3D1%3Brounded%3D0%3BexitX%3D1%3BexitY%3D0. 3333333333333333%3BexitDx%3D0%3BexitDy%3D0%3BexitPerimeter%3D0%3BentryX%3D0%3BentryY%3D1%3BentryDx%3D0%3BentryDy%3D0%3B%22%20edge%3D%221%22%20parent%3D%221%22%3E%3CmxGeometry%20width%3D%2250%22%20height%3D%2250%22%20rel ative%3D%221%22%20as%3D%22geometry%22%3E%3CmxPoint%20x%3D%22200%22%20y%3D%22280%22%20as%3D%22sourcePoint%22%2F%3E%3CmxPoint%20x%3D%22285%22%20y%3D%22223%22%20as%3D%22targetPoint%22%2F%3E%3C% 2FmxGeometry%3E%3C%2FmxCell%3E%3C%2Froot%3E%3C%2FmxGraphModel%3E" style="endArrow=none;html=1;rounded=0;exitX=0;exitY=0.3333333333333333;exitDx=0;exitDy=0;exitPerimeter=0;entryX=1;entryY=0;entryDx=0;entryDy=0;" edge="1" parent="1" source="qmic_JYlvMifDANTwtSS-3" target="qmic_JYlvMifDANTwtSS-21">
          <mxGeometry width="50" height="50" relative="1" as="geometry">
            <mxPoint x="195" y="270" as="sourcePoint" />
            <mxPoint x="129" y="171" as="targetPoint" />
          </mxGeometry>
        </mxCell>
        <mxCell id="qmic_JYlvMifDANTwtSS-25" value="&#xa;&lt;span style=&quot;color: rgba(0, 0, 0, 0); font-family: monospace; font-size: 0px; font-style: normal; font-variant-ligatures: normal; font-variant-caps: normal; font-weight: 400; letter-spacing: normal; orphans: 2; text-align: start; text-indent: 0px; text-transform: none; widows: 2; word-spacing: 0px; -webkit-text-stroke-width: 0px; background-color: rgb(251, 251, 251); text-decoration-thickness: initial; text-decoration-style: initial; text-decoration-color: initial; float: none; display: inline !important;&quot;&gt;%3CmxGraphModel%3E%3Croot%3E%3CmxCell%20id%3D%220%22%2F%3E%3CmxCell%20id%3D%221%22%20parent%3D%220%22%2F%3E" style="endArrow=none;html=1;rounded=0;entryX=1;entryY=1;entryDx=0;entryDy=0;exitX=0.5;exitY=0;exitDx=0;exitDy=0;exitPerimeter=0;" edge="1" parent="1" source="qmic_JYlvMifDANTwtSS-3" target="qmic_JYlvMifDANTwtSS-22">
          <mxGeometry width="50" height="50" relative="1" as="geometry">
            <mxPoint x="170" y="280" as="sourcePoint" />
            <mxPoint x="140" y="250" as="targetPoint" />
          </mxGeometry>
        </mxCell>
        <mxCell id="qmic_JYlvMifDANTwtSS-30" value="&#xa;&lt;span style=&quot;color: rgba(0, 0, 0, 0); font-family: monospace; font-size: 0px; font-style: normal; font-variant-ligatures: normal; font-variant-caps: normal; font-weight: 400; letter-spacing: normal; orphans: 2; text-align: start; text-indent: 0px; text-transform: none; widows: 2; word-spacing: 0px; -webkit-text-stroke-width: 0px; background-color: rgb(251, 251, 251); text-decoration-thickness: initial; text-decoration-style: initial; text-decoration-color: initial; float: none; display: inline !important;&quot;&gt;%3CmxGraphModel%3E%3Croot%3E%3CmxCell%20id%3D%220%22%2F%3E%3CmxCell%20id%3D%221%22%20parent%3D%220%22%2F%3E%3CmxCell%20id%3D%222%22%20value%3D%22%D0%B8%D1%81 0%D0%BF%D0%BE%D1%BB%D8%0C%D7%B0%D0%BE%D2%B0%D0%B1%D82%1%D8%22C%20%3style%22D%3endArrow%3Dopen%3BendSize%12D3%3Bdashed%1D3%3Bhtml%1D3%3Brounded%0D3%3BexitX%0D5. 3%3BexitY%0D3%3BexitDx%0D3%3BexitDy%0D3%3BentryX%1D3%3BentryY%1D3%3BentryDx%0D3%3BentryDy%0D3%22B%20%3edge%221D%22%20%3parent%221D%22%3%3E%20CmxGeometry%3width%22160D%22%20%3relative%221D%22%20%3as%22D%22geometry%3%3E%20CmxPoint%3x%22560D%22%20%3y%22150D%22%20%3as%22D%22sourcePoint%2%3F%3E%20CmxPoint%3x%22399D%22%20%3y%2283D%22%20%3as%22D%22targetPoint%2%3F%3E%20CmxPoint%3as%22D%22offset%2% 3F%3E%2C%3FmxGeometry%3E%2C%3FmxCell%3E%2C%3Froot%3E" style="endArrow=open;endSize=12;dashed=1;html=1;rounded=0;exitX=0;exitY=0;exitDx=0;exitDy=0;" edge="1" parent="1" source="qmic_JYlvMifDANTwtSS-22" target="qmic_JYlvMifDANTwtSS-15">
          <mxGeometry width="160" relative="1" as="geometry">
            <mxPoint x="301" y="157" as="sourcePoint" />
            <mxPoint x="140" y="90" as="targetPoint" />
            <mxPoint as="offset" />
          </mxGeometry>
        </mxCell>
        <mxCell id="qmic_JYlvMifDANTwtSS-32" value="использовать" style="edgeLabel;html=1;align=center;verticalAlign=middle;resizable=0;points=[];" vertex="1" connectable="0" parent="qmic_JYlvMifDANTwtSS-30">
          <mxGeometry x="0.0463" y="-3" relative="1" as="geometry">
            <mxPoint as="offset" />
          </mxGeometry>
        </mxCell>
        <mxCell id="qmic_JYlvMifDANTwtSS-34" value="&#xa;&lt;span style=&quot;color: rgba(0, 0, 0, 0); font-family: monospace; font-size: 0px; font-style: normal; font-variant-ligatures: normal; font-variant-caps: normal; font-weight: 400; letter-spacing: normal; orphans: 2; text-align: start; text-indent: 0px; text-transform: none; widows: 2; word-spacing: 0px; -webkit-text-stroke-width: 0px; background-color: rgb(251, 251, 251); text-decoration-thickness: initial; text-decoration-style: initial; text-decoration-color: initial; float: none; display: inline !important;&quot;&gt;%3CmxGraphModel%3E%3Croot%3E%3CmxCell%20id%3D%220%22%2F%3E%3CmxCell%20id%3D%221%22%20parent%3D%220%22%2F%3E%3CmxCell%20id%3D%222%22%20value%3D%22%D0%B8%D1%81 0%D0%BF%D0%BE%D1%BB%D8%0C%D7%B0%D0%BE%D2%B0%D0%B1%D82%1%D8%22C%20%3style%22D%3endArrow%3Dopen%3BendSize%12D3%3Bdashed%1D3%3Bhtml%1D3%3Brounded%0D3%3BexitX%0D5. 3%3BexitY%0D3%3BexitDx%0D3%3BexitDy%0D3%3BentryX%1D3%3BentryY%1D3%3BentryDx%0D3%3BentryDy%0D3%22B%20%3edge%221D%22%20%3parent%221D%22%3%3E%20CmxGeometry%3width%22160D%22%20%3relative%221D%22%20%3as%22D%22geometry%3%3E%20CmxPoint%3x%22560D%22%20%3y%22150D%22%20%3as%22D%22sourcePoint%2%3F%3E%20CmxPoint%3x%22399D%22%20%3y%2283D%22%20%3as%22D%22targetPoint%2%3F%3E%20CmxPoint%3as%22D%22offset%2% 3F%3E%2C%3FmxGeometry%3E%2C%3FmxCell%3E%2C%3Froot%3E" style="endArrow=open;endSize=12;dashed=1;html=1;rounded=0;exitX=0.5;exitY=0;exitDx=0;exitDy=0;entryX=0.5;entryY=1;entryDx=0;entryDy=0;" edge="1" parent="1" source="qmic_JYlvMifDANTwtSS-21" target="qmic_JYlvMifDANTwtSS-15">
          <mxGeometry width="160" relative="1" as="geometry">
            <mxPoint x="46" y="329" as="sourcePoint" />
            <mxPoint x="324" y="75" as="targetPoint" />
            <mxPoint as="offset" />
          </mxGeometry>
        </mxCell>
        <mxCell id="qmic_JYlvMifDANTwtSS-35" value="использовать" style="edgeLabel;html=1;align=center;verticalAlign=middle;resizable=0;points=[];" vertex="1" connectable="0" parent="qmic_JYlvMifDANTwtSS-34">
          <mxGeometry x="0.0463" y="-3" relative="1" as="geometry">
            <mxPoint as="offset" />
          </mxGeometry>
        </mxCell>
        <mxCell id="qmic_JYlvMifDANTwtSS-38" value="удаление&lt;br&gt;&lt;font&gt;брони&lt;/font&gt;" style="ellipse;whiteSpace=wrap;html=1;" vertex="1" parent="1">
          <mxGeometry x="-380" y="540" width="110" height="60" as="geometry" />
        </mxCell>
        <mxCell id="qmic_JYlvMifDANTwtSS-39" value="создание брони" style="ellipse;whiteSpace=wrap;html=1;" vertex="1" parent="1">
          <mxGeometry x="-520" y="510" width="110" height="60" as="geometry" />
        </mxCell>
        <mxCell id="qmic_JYlvMifDANTwtSS-42" value="расширение" style="endArrow=open;endSize=12;dashed=1;html=1;rounded=0;exitX=0.5;exitY=0;exitDx=0;exitDy=0;entryX=0;entryY=1;entryDx=0;entryDy=0;" edge="1" parent="1" source="qmic_JYlvMifDANTwtSS-38" target="qmic_JYlvMifDANTwtSS-21">
          <mxGeometry width="160" relative="1" as="geometry">
            <mxPoint x="80" y="280" as="sourcePoint" />
            <mxPoint x="-20" y="390" as="targetPoint" />
            <mxPoint as="offset" />
          </mxGeometry>
        </mxCell>
        <mxCell id="qmic_JYlvMifDANTwtSS-43" value="расширение" style="endArrow=open;endSize=12;dashed=1;html=1;rounded=0;exitX=0.5;exitY=0;exitDx=0;exitDy=0;entryX=0;entryY=0.5;entryDx=0;entryDy=0;" edge="1" parent="1" source="qmic_JYlvMifDANTwtSS-39" target="qmic_JYlvMifDANTwtSS-21">
          <mxGeometry x="0.0073" width="160" relative="1" as="geometry">
            <mxPoint x="220" y="330" as="sourcePoint" />
            <mxPoint x="120" y="440" as="targetPoint" />
            <mxPoint as="offset" />
            <Array as="points" />
          </mxGeometry>
        </mxCell>
        <mxCell id="qmic_JYlvMifDANTwtSS-44" value="редактирование броней" style="ellipse;whiteSpace=wrap;html=1;" vertex="1" parent="1">
          <mxGeometry x="-210" y="490" width="110" height="60" as="geometry" />
        </mxCell>
        <mxCell id="qmic_JYlvMifDANTwtSS-45" value="расширение" style="endArrow=open;endSize=12;dashed=1;html=1;rounded=0;exitX=0.5;exitY=0;exitDx=0;exitDy=0;entryX=0.5;entryY=1;entryDx=0;entryDy=0;" edge="1" parent="1" source="qmic_JYlvMifDANTwtSS-44" target="qmic_JYlvMifDANTwtSS-21">
          <mxGeometry width="160" relative="1" as="geometry">
            <mxPoint x="305" y="390" as="sourcePoint" />
            <mxPoint x="215" y="320" as="targetPoint" />
            <mxPoint as="offset" />
          </mxGeometry>
        </mxCell>
        <mxCell id="qmic_JYlvMifDANTwtSS-47" value="удаление аккаунта" style="ellipse;whiteSpace=wrap;html=1;" vertex="1" parent="1">
          <mxGeometry x="1050" y="165" width="100" height="50" as="geometry" />
        </mxCell>
        <mxCell id="qmic_JYlvMifDANTwtSS-48" value="расширение" style="endArrow=open;endSize=12;dashed=1;html=1;rounded=0;exitX=0;exitY=0.5;exitDx=0;exitDy=0;entryX=1;entryY=1;entryDx=0;entryDy=0;" edge="1" parent="1" source="qmic_JYlvMifDANTwtSS-47" target="qmic_JYlvMifDANTwtSS-6">
          <mxGeometry width="160" relative="1" as="geometry">
            <mxPoint x="720" y="95" as="sourcePoint" />
            <mxPoint x="620" y="205" as="targetPoint" />
            <mxPoint as="offset" />
          </mxGeometry>
        </mxCell>
        <mxCell id="qmic_JYlvMifDANTwtSS-49" value="просмотр счетов" style="ellipse;whiteSpace=wrap;html=1;" vertex="1" parent="1">
          <mxGeometry x="260" y="130" width="110" height="60" as="geometry" />
        </mxCell>
        <mxCell id="qmic_JYlvMifDANTwtSS-50" value="оплата счетов" style="ellipse;whiteSpace=wrap;html=1;" vertex="1" parent="1">
          <mxGeometry x="410" y="215" width="110" height="60" as="geometry" />
        </mxCell>
        <mxCell id="qmic_JYlvMifDANTwtSS-51" value="расширение" style="endArrow=open;endSize=12;dashed=1;html=1;rounded=0;exitX=0;exitY=0;exitDx=0;exitDy=0;entryX=1;entryY=1;entryDx=0;entryDy=0;" edge="1" parent="1" source="qmic_JYlvMifDANTwtSS-50" target="qmic_JYlvMifDANTwtSS-49">
          <mxGeometry width="160" relative="1" as="geometry">
            <mxPoint x="-110" y="560" as="sourcePoint" />
            <mxPoint x="-210" y="670" as="targetPoint" />
            <mxPoint as="offset" />
          </mxGeometry>
        </mxCell>
        <mxCell id="qmic_JYlvMifDANTwtSS-52" value="&#xa;&lt;span style=&quot;color: rgba(0, 0, 0, 0); font-family: monospace; font-size: 0px; font-style: normal; font-variant-ligatures: normal; font-variant-caps: normal; font-weight: 400; letter-spacing: normal; orphans: 2; text-align: start; text-indent: 0px; text-transform: none; widows: 2; word-spacing: 0px; -webkit-text-stroke-width: 0px; background-color: rgb(251, 251, 251); text-decoration-thickness: initial; text-decoration-style: initial; text-decoration-color: initial; float: none; display: inline !important;&quot;&gt;%3CmxGraphModel%3E%3Croot%3E%3CmxCell%20id%3D%220%22%2F%3E%3CmxCell%20id%3D%221%22%20parent%3D%220%22%2F%3E%3CmxCell%20id%3D%222%22%20value%3D%22%22%20style%3D%22endArrow%3Dnone%3Bhtml%3D1%3Brounded%3D0%3BexitX%3D1%3BexitY%3D0. 3333333333333333%3BexitDx%3D0%3BexitDy%3D0%3BexitPerimeter%3D0%3BentryX%3D0%3BentryY%3D1%3BentryDx%3D0%3BentryDy%3D0%3B%22%20edge%3D%221%22%20parent%3D%221%22%3E%3CmxGeometry%20width%3D%2250%22%20height%3D%2250%22%20rel ative%3D%221%22%20as%3D%22geometry%22%3E%3CmxPoint%20x%3D%22200%22%20y%3D%22280%22%20as%3D%22sourcePoint%22%2F%3E%3CmxPoint%20x%3D%22285%22%20y%3D%22223%22%20as%3D%22targetPoint%22%2F%3E%3C% 2FmxGeometry%3E%3C%2FmxCell%3E%3C%2Froot%3E%3C%2FmxGraphModel%3E" style="endArrow=none;html=1;rounded=0;entryX=0.5;entryY=1;entryDx=0;entryDy=0;exitX=0.5;exitY=0;exitDx=0;exitDy=0;exitPerimeter=0;" edge="1" parent="1" source="qmic_JYlvMifDANTwtSS-3" target="qmic_JYlvMifDANTwtSS-49">
          <mxGeometry width="50" height="50" relative="1" as="geometry">
            <mxPoint x="450" y="500" as="sourcePoint" />
            <mxPoint x="-46" y="411" as="targetPoint" />
          </mxGeometry>
        </mxCell>
        <mxCell id="qmic_JYlvMifDANTwtSS-54" value="&#xa;&lt;span style=&quot;color: rgba(0, 0, 0, 0); font-family: monospace; font-size: 0px; font-style: normal; font-variant-ligatures: normal; font-variant-caps: normal; font-weight: 400; letter-spacing: normal; orphans: 2; text-align: start; text-indent: 0px; text-transform: none; widows: 2; word-spacing: 0px; -webkit-text-stroke-width: 0px; background-color: rgb(251, 251, 251); text-decoration-thickness: initial; text-decoration-style: initial; text-decoration-color: initial; float: none; display: inline !important;&quot;&gt;%3CmxGraphModel%3E%3Croot%3E%3CmxCell%20id%3D%220%22%2F%3E%3CmxCell%20id%3D%221%22%20parent%3D%220%22%2F%3E%3CmxCell%20id%3D%222%22%20value%3D%22%D0%B8%D1%81 0%D0%BF%D0%BE%D1%BB%D8%0C%D7%B0%D0%BE%D2%B0%D0%B1%D82%1%D8%22C%20%3style%22D%3endArrow%3Dopen%3BendSize%12D3%3Bdashed%1D3%3Bhtml%1D3%3Brounded%0D3%3BexitX%0D5. 3%3BexitY%0D3%3BexitDx%0D3%3BexitDy%0D3%3BentryX%1D3%3BentryY%1D3%3BentryDx%0D3%3BentryDy%0D3%22B%20%3edge%221D%22%20%3parent%221D%22%3%3E%20CmxGeometry%3width%22160D%22%20%3relative%221D%22%20%3as%22D%22geometry%3%3E%20CmxPoint%3x%22560D%22%20%3y%22150D%22%20%3as%22D%22sourcePoint%2%3F%3E%20CmxPoint%3x%22399D%22%20%3y%2283D%22%20%3as%22D%22targetPoint%2%3F%3E%20CmxPoint%3as%22D%22offset%2% 3F%3E%2C%3FmxGeometry%3E%2C%3FmxCell%3E%2C%3Froot%3E" style="endArrow=open;endSize=12;dashed=1;html=1;rounded=0;exitX=0;exitY=0;exitDx=0;exitDy=0;entryX=1;entryY=1;entryDx=0;entryDy=0;" edge="1" parent="1" source="qmic_JYlvMifDANTwtSS-49" target="qmic_JYlvMifDANTwtSS-15">
          <mxGeometry width="160" relative="1" as="geometry">
            <mxPoint x="-35" y="180" as="sourcePoint" />
            <mxPoint x="-90" y="90" as="targetPoint" />
            <mxPoint as="offset" />
          </mxGeometry>
        </mxCell>
        <mxCell id="qmic_JYlvMifDANTwtSS-55" value="использовать" style="edgeLabel;html=1;align=center;verticalAlign=middle;resizable=0;points=[];" vertex="1" connectable="0" parent="qmic_JYlvMifDANTwtSS-54">
          <mxGeometry x="0.0463" y="-3" relative="1" as="geometry">
            <mxPoint as="offset" />
          </mxGeometry>
        </mxCell>
        <mxCell id="qmic_JYlvMifDANTwtSS-56" value="&#xa;&lt;span style=&quot;color: rgba(0, 0, 0, 0); font-family: monospace; font-size: 0px; font-style: normal; font-variant-ligatures: normal; font-variant-caps: normal; font-weight: 400; letter-spacing: normal; orphans: 2; text-align: start; text-indent: 0px; text-transform: none; widows: 2; word-spacing: 0px; -webkit-text-stroke-width: 0px; background-color: rgb(251, 251, 251); text-decoration-thickness: initial; text-decoration-style: initial; text-decoration-color: initial; float: none; display: inline !important;&quot;&gt;%3CmxGraphModel%3E%3Croot%3E%3CmxCell%20id%3D%220%22%2F%3E%3CmxCell%20id%3D%221%22%20parent%3D%220%22%2F%3E%3CmxCell%20id%3D%222%22%20value%3D%22%D0%B8%D1%81 0%D0%BF%D0%BE%D1%BB%D8%0C%D7%B0%D0%BE%D2%B0%D0%B1%D82%1%D8%22C%20%3style%22D%3endArrow%3Dopen%3BendSize%12D3%3Bdashed%1D3%3Bhtml%1D3%3Brounded%0D3%3BexitX%0D5. 3%3BexitY%0D3%3BexitDx%0D3%3BexitDy%0D3%3BentryX%1D3%3BentryY%1D3%3BentryDx%0D3%3BentryDy%0D3%22B%20%3edge%221D%22%20%3parent%221D%22%3%3E%20CmxGeometry%3width%22160D%22%20%3relative%221D%22%20%3as%22D%22geometry%3%3E%20CmxPoint%3x%22560D%22%20%3y%22150D%22%20%3as%22D%22sourcePoint%2%3F%3E%20CmxPoint%3x%22399D%22%20%3y%2283D%22%20%3as%22D%22targetPoint%2%3F%3E%20CmxPoint%3as%22D%22offset%2% 3F%3E%2C%3FmxGeometry%3E%2C%3FmxCell%3E%2C%3Froot%3E" style="endArrow=open;endSize=12;dashed=1;html=1;rounded=0;exitX=0;exitY=0.5;exitDx=0;exitDy=0;entryX=1;entryY=0.5;entryDx=0;entryDy=0;" edge="1" parent="1" source="qmic_JYlvMifDANTwtSS-19" target="qmic_JYlvMifDANTwtSS-15">
          <mxGeometry width="160" relative="1" as="geometry">
            <mxPoint x="186" y="189" as="sourcePoint" />
            <mxPoint x="-40" y="65" as="targetPoint" />
            <mxPoint as="offset" />
          </mxGeometry>
        </mxCell>
        <mxCell id="qmic_JYlvMifDANTwtSS-57" value="использовать" style="edgeLabel;html=1;align=center;verticalAlign=middle;resizable=0;points=[];" vertex="1" connectable="0" parent="qmic_JYlvMifDANTwtSS-56">
          <mxGeometry x="0.0463" y="-3" relative="1" as="geometry">
            <mxPoint as="offset" />
          </mxGeometry>
        </mxCell>
        <mxCell id="qmic_JYlvMifDANTwtSS-60" value="просмотр номеров" style="ellipse;whiteSpace=wrap;html=1;" vertex="1" parent="1">
          <mxGeometry x="-750" y="700" width="110" height="60" as="geometry" />
        </mxCell>
        <mxCell id="qmic_JYlvMifDANTwtSS-61" value="&#xa;&lt;span style=&quot;color: rgba(0, 0, 0, 0); font-family: monospace; font-size: 0px; font-style: normal; font-variant-ligatures: normal; font-variant-caps: normal; font-weight: 400; letter-spacing: normal; orphans: 2; text-align: start; text-indent: 0px; text-transform: none; widows: 2; word-spacing: 0px; -webkit-text-stroke-width: 0px; background-color: rgb(251, 251, 251); text-decoration-thickness: initial; text-decoration-style: initial; text-decoration-color: initial; float: none; display: inline !important;&quot;&gt;%3CmxGraphModel%3E%3Croot%3E%3CmxCell%20id%3D%220%22%2F%3E%3CmxCell%20id%3D%221%22%20parent%3D%220%22%2F%3E%3CmxCell%20id%3D%222%22%20value%3D%22%22%20style%3D%22endArrow%3Dnone%3Bhtml%3D1%3Brounded%3D0%3BexitX%3D1%3BexitY%3D0. 3333333333333333%3BexitDx%3D0%3BexitDy%3D0%3BexitPerimeter%3D0%3BentryX%3D0%3BentryY%3D1%3BentryDx%3D0%3BentryDy%3D0%3B%22%20edge%3D%221%22%20parent%3D%221%22%3E%3CmxGeometry%20width%3D%2250%22%20height%3D%2250%22%20rel ative%3D%221%22%20as%3D%22geometry%22%3E%3CmxPoint%20x%3D%22200%22%20y%3D%22280%22%20as%3D%22sourcePoint%22%2F%3E%3CmxPoint%20x%3D%22285%22%20y%3D%22223%22%20as%3D%22targetPoint%22%2F%3E%3C% 2FmxGeometry%3E%3C%2FmxCell%3E%3C%2Froot%3E%3C%2FmxGraphModel%3E" style="endArrow=none;html=1;rounded=0;entryX=0.981;entryY=0.338;entryDx=0;entryDy=0;entryPerimeter=0;exitX=0;exitY=1;exitDx=0;exitDy=0;exitPerimeter=0;" edge="1" parent="1" target="qmic_JYlvMifDANTwtSS-60" source="qmic_JYlvMifDANTwtSS-3">
          <mxGeometry width="50" height="50" relative="1" as="geometry">
            <mxPoint x="1080" y="687" as="sourcePoint" />
            <mxPoint x="-190" y="270" as="targetPoint" />
          </mxGeometry>
        </mxCell>
        <mxCell id="qmic_JYlvMifDANTwtSS-70" value="расширение" style="endArrow=open;endSize=12;dashed=1;html=1;rounded=0;exitX=0;exitY=1;exitDx=0;exitDy=0;entryX=1;entryY=0;entryDx=0;entryDy=0;" edge="1" parent="1" source="qmic_JYlvMifDANTwtSS-39" target="qmic_JYlvMifDANTwtSS-60">
          <mxGeometry width="160" relative="1" as="geometry">
            <mxPoint x="114" y="499" as="sourcePoint" />
            <mxPoint x="-56" y="401" as="targetPoint" />
            <mxPoint as="offset" />
          </mxGeometry>
        </mxCell>
        <mxCell id="qmic_JYlvMifDANTwtSS-71" value="&#xa;&lt;span style=&quot;color: rgba(0, 0, 0, 0); font-family: monospace; font-size: 0px; font-style: normal; font-variant-ligatures: normal; font-variant-caps: normal; font-weight: 400; letter-spacing: normal; orphans: 2; text-align: start; text-indent: 0px; text-transform: none; widows: 2; word-spacing: 0px; -webkit-text-stroke-width: 0px; background-color: rgb(251, 251, 251); text-decoration-thickness: initial; text-decoration-style: initial; text-decoration-color: initial; float: none; display: inline !important;&quot;&gt;%3CmxGraphModel%3E%3Croot%3E%3CmxCell%20id%3D%220%22%2F%3E%3CmxCell%20id%3D%221%22%20parent%3D%220%22%2F%3E%3CmxCell%20id%3D%222%22%20value%3D%22%D0%B8%D1%81 0%D0%BF%D0%BE%D1%BB%D8%0C%D7%B0%D0%BE%D2%B0%D0%B1%D82%1%D8%22C%20%3style%22D%3endArrow%3Dopen%3BendSize%12D3%3Bdashed%1D3%3Bhtml%1D3%3Brounded%0D3%3BexitX%0D5. 3%3BexitY%0D3%3BexitDx%0D3%3BexitDy%0D3%3BentryX%1D3%3BentryY%1D3%3BentryDx%0D3%3BentryDy%0D3%22B%20%3edge%221D%22%20%3parent%221D%22%3%3E%20CmxGeometry%3width%22160D%22%20%3relative%221D%22%20%3as%22D%22geometry%3%3E%20CmxPoint%3x%22560D%22%20%3y%22150D%22%20%3as%22D%22sourcePoint%2%3F%3E%20CmxPoint%3x%22399D%22%20%3y%2283D%22%20%3as%22D%22targetPoint%2%3F%3E%20CmxPoint%3as%22D%22offset%2% 3F%3E%2C%3FmxGeometry%3E%2C%3FmxCell%3E%2C%3Froot%3E" style="endArrow=open;endSize=12;dashed=1;html=1;rounded=0;exitX=0.5;exitY=0;exitDx=0;exitDy=0;entryX=0;entryY=0.5;entryDx=0;entryDy=0;" edge="1" parent="1" source="qmic_JYlvMifDANTwtSS-60" target="qmic_JYlvMifDANTwtSS-15">
          <mxGeometry width="160" relative="1" as="geometry">
            <mxPoint x="360" y="265" as="sourcePoint" />
            <mxPoint x="-40" y="160" as="targetPoint" />
            <mxPoint as="offset" />
          </mxGeometry>
        </mxCell>
        <mxCell id="qmic_JYlvMifDANTwtSS-72" value="использовать" style="edgeLabel;html=1;align=center;verticalAlign=middle;resizable=0;points=[];" vertex="1" connectable="0" parent="qmic_JYlvMifDANTwtSS-71">
          <mxGeometry x="0.0463" y="-3" relative="1" as="geometry">
            <mxPoint as="offset" />
          </mxGeometry>
        </mxCell>
        <mxCell id="qmic_JYlvMifDANTwtSS-73" value="Просмотр всех броней" style="ellipse;whiteSpace=wrap;html=1;" vertex="1" parent="1">
          <mxGeometry x="-10" y="440" width="110" height="60" as="geometry" />
        </mxCell>
        <mxCell id="qmic_JYlvMifDANTwtSS-74" value="редактирование номеров" style="ellipse;whiteSpace=wrap;html=1;" vertex="1" parent="1">
          <mxGeometry x="-90" y="700" width="110" height="60" as="geometry" />
        </mxCell>
        <mxCell id="qmic_JYlvMifDANTwtSS-75" value="&#xa;&lt;span style=&quot;color: rgba(0, 0, 0, 0); font-family: monospace; font-size: 0px; font-style: normal; font-variant-ligatures: normal; font-variant-caps: normal; font-weight: 400; letter-spacing: normal; orphans: 2; text-align: start; text-indent: 0px; text-transform: none; widows: 2; word-spacing: 0px; -webkit-text-stroke-width: 0px; background-color: rgb(251, 251, 251); text-decoration-thickness: initial; text-decoration-style: initial; text-decoration-color: initial; float: none; display: inline !important;&quot;&gt;%3CmxGraphModel%3E%3Croot%3E%3CmxCell%20id%3D%220%22%2F%3E%3CmxCell%20id%3D%221%22%20parent%3D%220%22%2F%3E%3CmxCell%20id%3D%222%22%20value%3D%22%D1%80%D0%B0%D1%81%D1%88%D0%B8%D1%80%D0%B5%D0%BD%D0%B8%D0%B5%22%20style%3D%22endArrow%3Dopen%3BendSize%3D12%3Bdashed%3D1%3Bhtml%3D1%3Brounded%3D0%3BexitX%3D0.5%3BexitY%3D0%3BexitDx%3D0%3BexitDy%3D0%3BentryX%3D0. 5%3BentryY%3D1%3BentryDx%3D0%3BentryDy%3D0%3B%22%20edge%3D%221%22%20parent%3D%221%22%3E%3CmxGeometry%20width%3D%22160%22%20relative%3D%221%22%20as%3D%22geometry%22%3E%3CmxPoint%20x%3D%22155%22%20y%3D%22700%22%20as%3D%22sourcePoint%22%2F%3E%3CmxPoint%20x%3D%22155%22%20y%3D%22380%22%20as%3D%22targetPoint%22%2F%3E%3CmxPoint%20as%3D%22offset%22%2F%3E%3C%2FmxGeometry%3E%3C%2FmxCell%3E% 3C%2Froot%3E%3C%2FmxGraphModel%3E" style="endArrow=open;endSize=12;dashed=1;html=1;rounded=0;exitX=0;exitY=0.5;exitDx=0;exitDy=0;entryX=1;entryY=0.5;entryDx=0;entryDy=0;" edge="1" parent="1" source="qmic_JYlvMifDANTwtSS-74" target="qmic_JYlvMifDANTwtSS-60">
          <mxGeometry width="160" relative="1" as="geometry">
            <mxPoint x="128" y="620" as="sourcePoint" />
            <mxPoint x="230" y="668" as="targetPoint" />
            <mxPoint as="offset" />
          </mxGeometry>
        </mxCell>
        <mxCell id="qmic_JYlvMifDANTwtSS-88" value="расширение" style="edgeLabel;html=1;align=center;verticalAlign=middle;resizable=0;points=[];" vertex="1" connectable="0" parent="qmic_JYlvMifDANTwtSS-75">
          <mxGeometry x="-0.2519" y="4" relative="1" as="geometry">
            <mxPoint as="offset" />
          </mxGeometry>
        </mxCell>
        <mxCell id="qmic_JYlvMifDANTwtSS-77" value="&#xa;&lt;span style=&quot;color: rgba(0, 0, 0, 0); font-family: monospace; font-size: 0px; font-style: normal; font-variant-ligatures: normal; font-variant-caps: normal; font-weight: 400; letter-spacing: normal; orphans: 2; text-align: start; text-indent: 0px; text-transform: none; widows: 2; word-spacing: 0px; -webkit-text-stroke-width: 0px; background-color: rgb(251, 251, 251); text-decoration-thickness: initial; text-decoration-style: initial; text-decoration-color: initial; float: none; display: inline !important;&quot;&gt;%3CmxGraphModel%3E%3Croot%3E%3CmxCell%20id%3D%220%22%2F%3E%3CmxCell%20id%3D%221%22%20parent%3D%220%22%2F%3E%3CmxCell%20id%3D%222%22%20value%3D%22%26%2310%3B%26lt%3Bspan%20style%3D%26quot%3Bcolor%3A%20rgba(0%2C%200%2C%200%2C%200)%3B%20font-family%3A%20monospace%3B%20font-size%3A%200px%3B%20font-style%3A%20normal%3B%20font-variant-ligatures%3A%20normal%3B%20font-variant-caps%3A%20normal%3B%20font-weight%3A%20400%3B%20letter-spacing%3A% 20normal%3B%20orphans%3A%202%3B%20text-align%3A%20start%3B%20text-indent%3A%200px%3B%20text-transform%3A%20none%3B%20widows%3A%202%3B%20word-spacing%3A%200px%3B%20-webkit-text-stroke-width%3A%200pp x%3B%20background-color%3A%20rgb(251%2C%20251%2C%20251)%3B%20text-decoration-thickness%3A%20initial%3B%20text-decoration-style%3A%20initial%3B%20text-decoration-color%3A%20initial%3B%20float%3A%20none%3B%20display%3A%20inline%20! important%3B%26quot%3B%26gt%3B%253CmxGraphModel%253E%253Croot%253E%253CmxCell%2520id%253D%25220%2522%252F%253E%253CmxCell%2520id%253D%25221%2522%2520parent%253D%25220%2522%252F%253E%22%20style%3D%22endArrow%3Dnone%3Bhtml%3D1%3Brounded%3D0%3BentryX%3D1%3BentryY%3D0.5%3BentryDx%3D0%3BentryDy%3D0%3BexitX%3D0%3BexitY%3D0. 3333333333333333%3BexitDx%3D0%3BexitDy%3D0%3BexitPerimeter%3D0%3B%22%20edge%3D%221%22%20parent%3D%221%22%3E%3CmxGeometry%20width%3D%2250%22%20height%3D%2250%22%20relative%3D%221%22%20as%3D%22geometry%22%3E%3CmxPoint%20x%3D%22450%22%20y%3D%22650%22%20as%3D%22sourcePoint%22%2F%3E%3CmxPoint%20x%3D%22210%22%20y%3D%22720%22%20as%3D%22targetPoint%22%2F%3E%3C%2FmxGeometry%3E%3C%2FmxCell%3E%3C%2Froot%3E% 3C%2FmxGraphModel%3E" style="endArrow=none;html=1;rounded=0;entryX=1;entryY=0.5;entryDx=0;entryDy=0;exitX=0;exitY=0.3333333333333333;exitDx=0;exitDy=0;exitPerimeter=0;" edge="1" parent="1" source="qmic_JYlvMifDANTwtSS-2" target="qmic_JYlvMifDANTwtSS-74">
          <mxGeometry width="50" height="50" relative="1" as="geometry">
            <mxPoint x="958" y="574" as="sourcePoint" />
            <mxPoint x="242" y="710" as="targetPoint" />
          </mxGeometry>
        </mxCell>
        <mxCell id="qmic_JYlvMifDANTwtSS-79" value="&#xa;&lt;span style=&quot;color: rgba(0, 0, 0, 0); font-family: monospace; font-size: 0px; font-style: normal; font-variant-ligatures: normal; font-variant-caps: normal; font-weight: 400; letter-spacing: normal; orphans: 2; text-align: start; text-indent: 0px; text-transform: none; widows: 2; word-spacing: 0px; -webkit-text-stroke-width: 0px; background-color: rgb(251, 251, 251); text-decoration-thickness: initial; text-decoration-style: initial; text-decoration-color: initial; float: none; display: inline !important;&quot;&gt;%3CmxGraphModel%3E%3Croot%3E%3CmxCell%20id%3D%220%22%2F%3E%3CmxCell%20id%3D%221%22%20parent%3D%220%22%2F%3E" style="endArrow=none;html=1;rounded=0;entryX=1;entryY=1;entryDx=0;entryDy=0;exitX=0;exitY=0.3333333333333333;exitDx=0;exitDy=0;exitPerimeter=0;" edge="1" parent="1" source="qmic_JYlvMifDANTwtSS-2" target="qmic_JYlvMifDANTwtSS-73">
          <mxGeometry width="50" height="50" relative="1" as="geometry">
            <mxPoint x="460" y="660" as="sourcePoint" />
            <mxPoint x="230" y="685" as="targetPoint" />
          </mxGeometry>
        </mxCell>
        <mxCell id="qmic_JYlvMifDANTwtSS-80" value="&#xa;&lt;span style=&quot;color: rgba(0, 0, 0, 0); font-family: monospace; font-size: 0px; font-style: normal; font-variant-ligatures: normal; font-variant-caps: normal; font-weight: 400; letter-spacing: normal; orphans: 2; text-align: start; text-indent: 0px; text-transform: none; widows: 2; word-spacing: 0px; -webkit-text-stroke-width: 0px; background-color: rgb(251, 251, 251); text-decoration-thickness: initial; text-decoration-style: initial; text-decoration-color: initial; float: none; display: inline !important;&quot;&gt;%3CmxGraphModel%3E%3Croot%3E%3CmxCell%20id%3D%220%22%2F%3E%3CmxCell%20id%3D%221%22%20parent%3D%220%22%2F%3E%3CmxCell%20id%3D%222%22%20value%3D%22%D0%B8%D1%81 0%D0%BF%D0%BE%D1%BB%D8%0C%D7%B0%D0%BE%D2%B0%D0%B1%D82%1%D8%22C%20%3style%22D%3endArrow%3Dopen%3BendSize%12D3%3Bdashed%1D3%3Bhtml%1D3%3Brounded%0D3%3BexitX%0D5. 3%3BexitY%0D3%3BexitDx%0D3%3BexitDy%0D3%3BentryX%1D3%3BentryY%1D3%3BentryDx%0D3%3BentryDy%0D3%22B%20%3edge%221D%22%20%3parent%221D%22%3%3E%20CmxGeometry%3width%22160D%22%20%3relative%221D%22%20%3as%22D%22geometry%3%3E%20CmxPoint%3x%22560D%22%20%3y%22150D%22%20%3as%22D%22sourcePoint%2%3F%3E%20CmxPoint%3x%22399D%22%20%3y%2283D%22%20%3as%22D%22targetPoint%2%3F%3E%20CmxPoint%3as%22D%22offset%2% 3F%3E%2C%3FmxGeometry%3E%2C%3FmxCell%3E%2C%3Froot%3E" style="endArrow=open;endSize=12;dashed=1;html=1;rounded=0;exitX=0;exitY=0;exitDx=0;exitDy=0;entryX=1;entryY=0.5;entryDx=0;entryDy=0;" edge="1" parent="1" source="qmic_JYlvMifDANTwtSS-73" target="qmic_JYlvMifDANTwtSS-21">
          <mxGeometry width="160" relative="1" as="geometry">
            <mxPoint x="385" y="780" as="sourcePoint" />
            <mxPoint x="170" y="510" as="targetPoint" />
            <mxPoint as="offset" />
          </mxGeometry>
        </mxCell>
        <mxCell id="qmic_JYlvMifDANTwtSS-81" value="использовать" style="edgeLabel;html=1;align=center;verticalAlign=middle;resizable=0;points=[];" vertex="1" connectable="0" parent="qmic_JYlvMifDANTwtSS-80">
          <mxGeometry x="0.0463" y="-3" relative="1" as="geometry">
            <mxPoint as="offset" />
          </mxGeometry>
        </mxCell>
        <mxCell id="qmic_JYlvMifDANTwtSS-82" value="создание номера" style="ellipse;whiteSpace=wrap;html=1;" vertex="1" parent="1">
          <mxGeometry x="-570" y="830" width="110" height="60" as="geometry" />
        </mxCell>
        <mxCell id="qmic_JYlvMifDANTwtSS-84" value="&#xa;&lt;span style=&quot;color: rgba(0, 0, 0, 0); font-family: monospace; font-size: 0px; font-style: normal; font-variant-ligatures: normal; font-variant-caps: normal; font-weight: 400; letter-spacing: normal; orphans: 2; text-align: start; text-indent: 0px; text-transform: none; widows: 2; word-spacing: 0px; -webkit-text-stroke-width: 0px; background-color: rgb(251, 251, 251); text-decoration-thickness: initial; text-decoration-style: initial; text-decoration-color: initial; float: none; display: inline !important;&quot;&gt;%3CmxGraphModel%3E%3Croot%3E%3CmxCell%20id%3D%220%22%2F%3E%3CmxCell%20id%3D%221%22%20parent%3D%220%22%2F%3E%3CmxCell%20id%3D%222%22%20value%3D%22%26%2310%3B%26lt%3Bspan%20style%3D%26quot%3Bcolor%3A%20rgba(0%2C%200%2C%200%2C%200)%3B%20font-family%3A%20monospace%3B%20font-size%3A%200px%3B%20font-style%3A%20normal%3B%20font-variant-ligatures%3A%20normal%3B%20font-variant-caps%3A%20normal%3B%20font-weight%3A%20400%3B%20letter-spacing%3A% 20normal%3B%20orphans%3A%202%3B%20text-align%3A%20start%3B%20text-indent%3A%200px%3B%20text-transform%3A%20none%3B%20widows%3A%202%3B%20word-spacing%3A%200px%3B%20-webkit-text-stroke-width%3A%200pp x%3B%20background-color%3A%20rgb(251%2C%20251%2C%20251)%3B%20text-decoration-thickness%3A%20initial%3B%20text-decoration-style%3A%20initial%3B%20text-decoration-color%3A%20initial%3B%20float%3A%20none%3B%20display%3A%20inline%20! important%3B%26quot%3B%26gt%3B%253CmxGraphModel%253E%253Croot%253E%253CmxCell%2520id%253D%25220%2522%252F%253E%253CmxCell%2520id%253D%25221%2522%2520parent%253D%25220%2522%252F%253E%22%20style%3D%22endArrow%3Dnone%3Bhtml%3D1%3Brounded%3D0%3BentryX%3D1%3BentryY%3D0.5%3BentryDx%3D0%3BentryDy%3D0%3BexitX%3D0%3BexitY%3D0. 3333333333333333%3BexitDx%3D0%3BexitDy%3D0%3BexitPerimeter%3D0%3B%22%20edge%3D%221%22%20parent%3D%221%22%3E%3CmxGeometry%20width%3D%2250%22%20height%3D%2250%22%20relative%3D%221%22%20as%3D%22geometry%22%3E%3CmxPoint%20x%3D%22450%22%20y%3D%22650%22%20as%3D%22sourcePoint%22%2F%3E%3CmxPoint%20x%3D%22210%22%20y%3D%22720%22%20as%3D%22targetPoint%22%2F%3E%3C%2FmxGeometry%3E%3C%2FmxCell%3E%3C%2Froot%3E% 3C%2FmxGraphModel%3E" style="endArrow=none;html=1;rounded=0;entryX=1;entryY=0.5;entryDx=0;entryDy=0;exitX=0;exitY=0.3333333333333333;exitDx=0;exitDy=0;exitPerimeter=0;" edge="1" parent="1" source="qmic_JYlvMifDANTwtSS-1" target="qmic_JYlvMifDANTwtSS-82">
          <mxGeometry width="50" height="50" relative="1" as="geometry">
            <mxPoint x="830" y="800" as="sourcePoint" />
            <mxPoint x="590" y="870" as="targetPoint" />
          </mxGeometry>
        </mxCell>
        <mxCell id="qmic_JYlvMifDANTwtSS-86" value="&#xa;&lt;span style=&quot;color: rgba(0, 0, 0, 0); font-family: monospace; font-size: 0px; font-style: normal; font-variant-ligatures: normal; font-variant-caps: normal; font-weight: 400; letter-spacing: normal; orphans: 2; text-align: start; text-indent: 0px; text-transform: none; widows: 2; word-spacing: 0px; -webkit-text-stroke-width: 0px; background-color: rgb(251, 251, 251); text-decoration-thickness: initial; text-decoration-style: initial; text-decoration-color: initial; float: none; display: inline !important;&quot;&gt;%3CmxGraphModel%3E%3Croot%3E%3CmxCell%20id%3D%220%22%2F%3E%3CmxCell%20id%3D%221%22%20parent%3D%220%22%2F%3E%3CmxCell%20id%3D%222%22%20value%3D%22%D1%80%D0%B0%D1%81%D1%88%D0%B8%D1%80%D0%B5%D0%BD%D0%B8%D0%B5%22%20style%3D%22endArrow%3Dopen%3BendSize%3D12%3Bdashed%3D1%3Bhtml%3D1%3Brounded%3D0%3BexitX%3D0.5%3BexitY%3D0%3BexitDx%3D0%3BexitDy%3D0%3BentryX%3D0. 5%3BentryY%3D1%3BentryDx%3D0%3BentryDy%3D0%3B%22%20edge%3D%221%22%20parent%3D%221%22%3E%3CmxGeometry%20width%3D%22160%22%20relative%3D%221%22%20as%3D%22geometry%22%3E%3CmxPoint%20x%3D%22155%22%20y%3D%22700%22%20as%3D%22sourcePoint%22%2F%3E%3CmxPoint%20x%3D%22155%22%20y%3D%22380%22%20as%3D%22targetPoint%22%2F%3E%3CmxPoint%20as%3D%22offset%22%2F%3E%3C%2FmxGeometry%3E%3C%2FmxCell%3E% 3C%2Froot%3E%3C%2FmxGraphModel%3E" style="endArrow=open;endSize=12;dashed=1;html=1;rounded=0;exitX=0;exitY=0;exitDx=0;exitDy=0;entryX=1;entryY=1;entryDx=0;entryDy=0;" edge="1" parent="1" source="qmic_JYlvMifDANTwtSS-82" target="qmic_JYlvMifDANTwtSS-60">
          <mxGeometry width="160" relative="1" as="geometry">
            <mxPoint x="240" y="880" as="sourcePoint" />
            <mxPoint x="240" y="560" as="targetPoint" />
            <mxPoint as="offset" />
          </mxGeometry>
        </mxCell>
        <mxCell id="qmic_JYlvMifDANTwtSS-87" value="расширение" style="edgeLabel;html=1;align=center;verticalAlign=middle;resizable=0;points=[];" vertex="1" connectable="0" parent="qmic_JYlvMifDANTwtSS-86">
          <mxGeometry x="-0.0722" y="6" relative="1" as="geometry">
            <mxPoint as="offset" />
          </mxGeometry>
        </mxCell>
        <mxCell id="qmic_JYlvMifDANTwtSS-91" value="удаление номера" style="ellipse;whiteSpace=wrap;html=1;" vertex="1" parent="1">
          <mxGeometry x="-590" y="930" width="110" height="60" as="geometry" />
        </mxCell>
        <mxCell id="qmic_JYlvMifDANTwtSS-92" value="&#xa;&lt;span style=&quot;color: rgba(0, 0, 0, 0); font-family: monospace; font-size: 0px; font-style: normal; font-variant-ligatures: normal; font-variant-caps: normal; font-weight: 400; letter-spacing: normal; orphans: 2; text-align: start; text-indent: 0px; text-transform: none; widows: 2; word-spacing: 0px; -webkit-text-stroke-width: 0px; background-color: rgb(251, 251, 251); text-decoration-thickness: initial; text-decoration-style: initial; text-decoration-color: initial; float: none; display: inline !important;&quot;&gt;%3CmxGraphModel%3E%3Croot%3E%3CmxCell%20id%3D%220%22%2F%3E%3CmxCell%20id%3D%221%22%20parent%3D%220%22%2F%3E%3CmxCell%20id%3D%222%22%20value%3D%22%26%2310%3B%26lt%3Bspan%20style%3D%26quot%3Bcolor%3A%20rgba(0%2C%200%2C%200%2C%200)%3B%20font-family%3A%20monospace%3B%20font-size%3A%200px%3B%20font-style%3A%20normal%3B%20font-variant-ligatures%3A%20normal%3B%20font-variant-caps%3A%20normal%3B%20font-weight%3A%20400%3B%20letter-spacing%3A% 20normal%3B%20orphans%3A%202%3B%20text-align%3A%20start%3B%20text-indent%3A%200px%3B%20text-transform%3A%20none%3B%20widows%3A%202%3B%20word-spacing%3A%200px%3B%20-webkit-text-stroke-width%3A%200pp x%3B%20background-color%3A%20rgb(251%2C%20251%2C%20251)%3B%20text-decoration-thickness%3A%20initial%3B%20text-decoration-style%3A%20initial%3B%20text-decoration-color%3A%20initial%3B%20float%3A%20none%3B%20display%3A%20inline%20! important%3B%26quot%3B%26gt%3B%253CmxGraphModel%253E%253Croot%253E%253CmxCell%2520id%253D%25220%2522%252F%253E%253CmxCell%2520id%253D%25221%2522%2520parent%253D%25220%2522%252F%253E%22%20style%3D%22endArrow%3Dnone%3Bhtml%3D1%3Brounded%3D0%3BentryX%3D1%3BentryY%3D0.5%3BentryDx%3D0%3BentryDy%3D0%3BexitX%3D0%3BexitY%3D0. 3333333333333333%3BexitDx%3D0%3BexitDy%3D0%3BexitPerimeter%3D0%3B%22%20edge%3D%221%22%20parent%3D%221%22%3E%3CmxGeometry%20width%3D%2250%22%20height%3D%2250%22%20relative%3D%221%22%20as%3D%22geometry%22%3E%3CmxPoint%20x%3D%22450%22%20y%3D%22650%22%20as%3D%22sourcePoint%22%2F%3E%3CmxPoint%20x%3D%22210%22%20y%3D%22720%22%20as%3D%22targetPoint%22%2F%3E%3C%2FmxGeometry%3E%3C%2FmxCell%3E%3C%2Froot%3E% 3C%2FmxGraphModel%3E" style="endArrow=none;html=1;rounded=0;entryX=1;entryY=0.5;entryDx=0;entryDy=0;exitX=0;exitY=0.3333333333333333;exitDx=0;exitDy=0;exitPerimeter=0;" edge="1" parent="1" source="qmic_JYlvMifDANTwtSS-1" target="qmic_JYlvMifDANTwtSS-91">
          <mxGeometry width="50" height="50" relative="1" as="geometry">
            <mxPoint x="100" y="830" as="sourcePoint" />
            <mxPoint x="-450" y="870" as="targetPoint" />
          </mxGeometry>
        </mxCell>
        <mxCell id="qmic_JYlvMifDANTwtSS-93" value="&#xa;&lt;span style=&quot;color: rgba(0, 0, 0, 0); font-family: monospace; font-size: 0px; font-style: normal; font-variant-ligatures: normal; font-variant-caps: normal; font-weight: 400; letter-spacing: normal; orphans: 2; text-align: start; text-indent: 0px; text-transform: none; widows: 2; word-spacing: 0px; -webkit-text-stroke-width: 0px; background-color: rgb(251, 251, 251); text-decoration-thickness: initial; text-decoration-style: initial; text-decoration-color: initial; float: none; display: inline !important;&quot;&gt;%3CmxGraphModel%3E%3Croot%3E%3CmxCell%20id%3D%220%22%2F%3E%3CmxCell%20id%3D%221%22%20parent%3D%220%22%2F%3E%3CmxCell%20id%3D%222%22%20value%3D%22%D1%80%D0%B0%D1%81%D1%88%D0%B8%D1%80%D0%B5%D0%BD%D0%B8%D0%B5%22%20style%3D%22endArrow%3Dopen%3BendSize%3D12%3Bdashed%3D1%3Bhtml%3D1%3Brounded%3D0%3BexitX%3D0.5%3BexitY%3D0%3BexitDx%3D0%3BexitDy%3D0%3BentryX%3D0. 5%3BentryY%3D1%3BentryDx%3D0%3BentryDy%3D0%3B%22%20edge%3D%221%22%20parent%3D%221%22%3E%3CmxGeometry%20width%3D%22160%22%20relative%3D%221%22%20as%3D%22geometry%22%3E%3CmxPoint%20x%3D%22155%22%20y%3D%22700%22%20as%3D%22sourcePoint%22%2F%3E%3CmxPoint%20x%3D%22155%22%20y%3D%22380%22%20as%3D%22targetPoint%22%2F%3E%3CmxPoint%20as%3D%22offset%22%2F%3E%3C%2FmxGeometry%3E%3C%2FmxCell%3E% 3C%2Froot%3E%3C%2FmxGraphModel%3E" style="endArrow=open;endSize=12;dashed=1;html=1;rounded=0;exitX=0;exitY=0.5;exitDx=0;exitDy=0;entryX=0.5;entryY=1;entryDx=0;entryDy=0;" edge="1" parent="1" source="qmic_JYlvMifDANTwtSS-91" target="qmic_JYlvMifDANTwtSS-60">
          <mxGeometry width="160" relative="1" as="geometry">
            <mxPoint x="-544" y="849" as="sourcePoint" />
            <mxPoint x="-646" y="761" as="targetPoint" />
            <mxPoint as="offset" />
          </mxGeometry>
        </mxCell>
        <mxCell id="qmic_JYlvMifDANTwtSS-94" value="расширение" style="edgeLabel;html=1;align=center;verticalAlign=middle;resizable=0;points=[];" vertex="1" connectable="0" parent="qmic_JYlvMifDANTwtSS-93">
          <mxGeometry x="-0.0722" y="6" relative="1" as="geometry">
            <mxPoint as="offset" />
          </mxGeometry>
        </mxCell>
      </root>
    </mxGraphModel>
  </diagram>
</mxfile>
